<svg xmlns="http://www.w3.org/2000/svg" width="3400" height="2700" viewBox="0 0 3400 2700">
  <defs>
    <linearGradient id="bg" x1="0" y1="0" x2="1" y2="1"><stop stop-color="#F3F6F2"/><stop offset="1" stop-color="#EEF3F7"/></linearGradient>
    <linearGradient id="hero" x1="0" y1="0" x2="1" y2="1"><stop stop-color="#286859"/><stop offset="1" stop-color="#183F37"/></linearGradient>
    <linearGradient id="glass" x1="0" y1="0" x2="1" y2="1"><stop stop-color="#FFFFFF" stop-opacity=".86"/><stop offset="1" stop-color="#FFFFFF" stop-opacity=".56"/></linearGradient>
    <filter id="shadow" x="-30%" y="-30%" width="160%" height="180%"><feDropShadow dx="0" dy="16" stdDeviation="24" flood-color="#163C33" flood-opacity=".12"/></filter>
    <filter id="soft" x="-30%" y="-30%" width="160%" height="180%"><feDropShadow dx="0" dy="8" stdDeviation="16" flood-color="#173A32" flood-opacity=".10"/></filter>
    <style>
      text{font-family:-apple-system,BlinkMacSystemFont,"Apple SD Gothic Neo","Noto Sans KR",sans-serif;fill:#17201E}
      .display{font-size:44px;font-weight:760;letter-spacing:-1.8px}.title{font-size:28px;font-weight:750;letter-spacing:-.7px}.h2{font-size:22px;font-weight:700;letter-spacing:-.4px}.body{font-size:17px;font-weight:520}.small{font-size:14px;font-weight:560}.caption{font-size:12px;font-weight:600;fill:#6B7672}.num{font-variant-numeric:tabular-nums}.muted{fill:#697570}.green{fill:#286859}.red{fill:#D65A52}.blue{fill:#3979A7}.white{fill:#fff}.hair{stroke:#DEE5E1;stroke-width:1}.icon{fill:none;stroke:currentColor;stroke-width:2.3;stroke-linecap:round;stroke-linejoin:round}
    </style>
    <symbol id="tabbar" viewBox="0 0 350 76">
      <rect x="0" y="0" width="350" height="76" rx="30" fill="url(#glass)" stroke="#FFFFFF" stroke-opacity=".8" filter="url(#soft)"/>
      <circle cx="44" cy="30" r="15" fill="#286859" opacity=".12"/><text x="44" y="35" text-anchor="middle" class="small green">⌂</text><text x="44" y="60" text-anchor="middle" class="caption green">캘린더</text>
      <text x="130" y="36" text-anchor="middle" class="body muted">≡</text><text x="130" y="60" text-anchor="middle" class="caption">내역</text>
      <text x="220" y="36" text-anchor="middle" class="body muted">▱</text><text x="220" y="60" text-anchor="middle" class="caption">지갑</text>
      <text x="306" y="36" text-anchor="middle" class="body muted">⚙</text><text x="306" y="60" text-anchor="middle" class="caption">설정</text>
    </symbol>
    <symbol id="phone" viewBox="0 0 430 932"><rect width="430" height="932" rx="58" fill="#171C1B"/><rect x="8" y="8" width="414" height="916" rx="51" fill="#FAF7F0"/><rect x="157" y="18" width="116" height="30" rx="15" fill="#171C1B"/></symbol>
  </defs>
  <rect width="3400" height="2700" fill="url(#bg)"/>
  <circle cx="3110" cy="120" r="360" fill="#D8B477" opacity=".18"/><circle cx="180" cy="2450" r="440" fill="#286859" opacity=".08"/>

  <!-- Header -->
  <g id="00-cover">
    <text x="120" y="132" class="small green">SMART BUDGET · iOS DESIGN SYSTEM</text>
    <text x="120" y="198" class="display">우리 둘의 돈을, 더 가볍게.</text>
    <text x="120" y="244" class="body muted">공동 가계부의 신뢰감과 iOS 26의 유연한 깊이를 결합한 제품 디자인</text>
    <rect x="2760" y="104" width="500" height="124" rx="38" fill="url(#glass)" stroke="#fff" filter="url(#soft)"/>
    <circle cx="2820" cy="166" r="30" fill="#286859"/><text x="2820" y="174" text-anchor="middle" class="h2 white">우</text>
    <text x="2870" y="158" class="h2">Forest &amp; Cream</text><text x="2870" y="188" class="small muted">Primary theme · Light</text>
  </g>

  <!-- Design system -->
  <g id="01-design-system" transform="translate(120 330)">
    <rect width="3160" height="560" rx="44" fill="#FFFFFF" opacity=".92" filter="url(#shadow)"/>
    <text x="48" y="64" class="title">Foundations &amp; Components</text>
    <text x="48" y="98" class="small muted">8pt grid · 44pt minimum touch target · SF Pro / Apple SD Gothic Neo · content-first glass</text>

    <g id="colors" transform="translate(48 142)">
      <text class="h2" y="0">Color</text>
      <g transform="translate(0 30)"><rect width="96" height="96" rx="28" fill="#286859"/><text x="0" y="126" class="small">Forest</text><text x="0" y="148" class="caption">#286859</text></g>
      <g transform="translate(118 30)"><rect width="96" height="96" rx="28" fill="#D8B477"/><text x="0" y="126" class="small">Sand</text><text x="0" y="148" class="caption">#D8B477</text></g>
      <g transform="translate(236 30)"><rect width="96" height="96" rx="28" fill="#FAF7F0" stroke="#E6E0D5"/><text x="0" y="126" class="small">Cream</text><text x="0" y="148" class="caption">#FAF7F0</text></g>
      <g transform="translate(0 208)"><rect width="96" height="64" rx="22" fill="#3979A7"/><text x="0" y="94" class="caption">Income +</text></g>
      <g transform="translate(118 208)"><rect width="96" height="64" rx="22" fill="#D65A52"/><text x="0" y="94" class="caption">Expense −</text></g>
      <g transform="translate(236 208)"><rect width="96" height="64" rx="22" fill="#17201E"/><text x="0" y="94" class="caption">Ink</text></g>
    </g>

    <g id="type" transform="translate(470 142)"><text class="h2">Typography</text><text y="64" class="display">₩ 2,480,000</text><text y="112" class="title">9월의 생활</text><text y="152" class="h2">카드 실적 76%</text><text y="190" class="body">오늘의 지출을 함께 기록해요</text><text y="224" class="small muted">최근 수정 · 수진 · 오후 8:14</text><text y="258" class="caption">AMOUNT / LABEL / METADATA</text></g>

    <g id="buttons" transform="translate(940 142)"><text class="h2">Actions</text>
      <rect y="30" width="260" height="56" rx="20" fill="#286859"/><text x="130" y="65" text-anchor="middle" class="body white">저장하기</text>
      <rect y="104" width="260" height="56" rx="20" fill="#E6EFEA"/><text x="130" y="139" text-anchor="middle" class="body green">캡처에서 불러오기</text>
      <rect y="178" width="260" height="56" rx="20" fill="#fff" stroke="#D7E0DB"/><text x="130" y="213" text-anchor="middle" class="body">직접 입력</text>
      <rect y="252" width="260" height="56" rx="20" fill="#E7EAE8"/><text x="130" y="287" text-anchor="middle" class="body" fill="#9AA39F">저장할 항목 없음</text>
    </g>

    <g id="fields" transform="translate(1260 142)"><text class="h2">Fields &amp; states</text>
      <rect y="30" width="390" height="70" rx="20" fill="#F3F5F3"/><text x="18" y="54" class="caption">금액</text><text x="18" y="84" class="body num">48,000원</text><text x="355" y="73" class="body muted">₩</text>
      <rect y="116" width="390" height="70" rx="20" fill="#FFF1EF" stroke="#E48178"/><text x="18" y="140" class="caption red">날짜 · 확인 필요</text><text x="18" y="172" class="body muted">날짜를 선택하세요</text><text x="350" y="160" class="body red">!</text>
      <rect y="202" width="390" height="54" rx="18" fill="#F3F5F3"/><circle cx="28" cy="229" r="10" fill="#286859"/><text x="50" y="235" class="body">신한 Deep Dream</text><text x="300" y="235" class="small muted">수진 ▾</text>
    </g>

    <g id="cards" transform="translate(1710 142)"><text class="h2">Cards</text>
      <rect y="30" width="390" height="146" rx="28" fill="url(#hero)" filter="url(#soft)"/><text x="24" y="66" class="small white">이번 달</text><text x="24" y="112" class="title white num">₩ 1,284,500</text><text x="24" y="146" class="small white" opacity=".75">예산의 64% · 12일 남음</text><circle cx="344" cy="74" r="30" fill="#fff" opacity=".13"/><text x="344" y="82" text-anchor="middle" class="h2 white">↗</text>
      <rect y="194" width="390" height="116" rx="26" fill="#F5F7F5"/><circle cx="52" cy="252" r="28" fill="#DDE9E4"/><text x="52" y="259" text-anchor="middle" class="body green">▣</text><text x="94" y="239" class="body">신세계 상품권</text><text x="94" y="270" class="h2 num">80,000원</text><text x="326" y="256" class="body muted">›</text>
    </g>

    <g id="navigation" transform="translate(2160 142)"><text class="h2">Navigation &amp; glass</text><use href="#tabbar" x="0" y="36" width="350" height="76"/><rect x="0" y="150" width="350" height="58" rx="24" fill="url(#glass)" stroke="#fff" filter="url(#soft)"/><text x="24" y="185" class="body">‹</text><text x="175" y="185" text-anchor="middle" class="h2">2026년 9월</text><text x="320" y="185" text-anchor="middle" class="body">오늘</text><rect x="0" y="232" width="168" height="48" rx="18" fill="#17201E"/><text x="84" y="263" text-anchor="middle" class="small white">＋ 거래 기록</text><circle cx="326" cy="256" r="24" fill="#286859"/><text x="326" y="264" text-anchor="middle" class="h2 white">＋</text></g>

    <g id="tokens" transform="translate(2580 142)"><text class="h2">Tokens</text><text y="44" class="small muted">Radius</text><text x="112" y="44" class="body">16 / 20 / 28 / 44</text><text y="82" class="small muted">Spacing</text><text x="112" y="82" class="body">4 · 8 · 12 · 16 · 24 · 32</text><text y="120" class="small muted">Elevation</text><text x="112" y="120" class="body">Soft / Floating</text><text y="158" class="small muted">Glass</text><text x="112" y="158" class="body">Navigation only</text><text y="196" class="small muted">Motion</text><text x="112" y="196" class="body">220–360ms spring</text><text y="234" class="small muted">Data</text><text x="112" y="234" class="body">Tabular figures</text></g>
  </g>

  <!-- Screen 1 Calendar -->
  <g id="02-calendar" transform="translate(120 990)"><use href="#phone" width="430" height="932"/><g transform="translate(32 70)">
    <text class="small muted">우리 가계부</text><text y="46" class="title">9월의 생활</text><circle cx="330" cy="22" r="24" fill="#E8EEE9"/><text x="330" y="29" text-anchor="middle" class="body green">수</text>
    <rect y="84" width="366" height="148" rx="30" fill="url(#hero)" filter="url(#soft)"/><text x="22" y="118" class="small white" opacity=".8">이번 달 남은 예산</text><text x="22" y="166" class="title white num">715,500원</text><rect x="22" y="190" width="240" height="7" rx="4" fill="#fff" opacity=".24"/><rect x="22" y="190" width="154" height="7" rx="4" fill="#D8B477"/><text x="282" y="197" class="caption white">64%</text>
    <text y="278" class="h2">2026년 9월</text><text x="318" y="278" class="small green">오늘</text>
    <g transform="translate(0 310)" class="caption"><text x="18">월</text><text x="70">화</text><text x="122">수</text><text x="174">목</text><text x="226">금</text><text x="278">토</text><text x="330" class="red">일</text></g>
    <g transform="translate(0 342)" class="small" text-anchor="middle"><text x="18">31</text><text x="70">1</text><text x="122">2</text><text x="174">3</text><text x="226">4</text><text x="278">5</text><text x="330">6</text><text x="18" y="54">7</text><text x="70" y="54">8</text><circle cx="122" cy="48" r="23" fill="#286859"/><text x="122" y="54" class="white">9</text><text x="174" y="54">10</text><text x="226" y="54">11</text><text x="278" y="54">12</text><text x="330" y="54">13</text><text x="18" y="108">14</text><text x="70" y="108">15</text><text x="122" y="108">16</text><text x="174" y="108">17</text><text x="226" y="108">18</text><text x="278" y="108">19</text><text x="330" y="108">20</text><text x="18" y="162">21</text><text x="70" y="162">22</text><text x="122" y="162">23</text><text x="174" y="162">24</text><text x="226" y="162">25</text><text x="278" y="162">26</text><text x="330" y="162">27</text></g>
    <g transform="translate(0 540)"><text class="h2">9일 수요일</text><text x="366" text-anchor="end" class="small muted">3건</text><rect y="24" width="366" height="114" rx="26" fill="#fff"/><circle cx="34" cy="59" r="8" fill="#D65A52"/><text x="58" y="64" class="body">마켓컬리</text><text x="344" y="64" text-anchor="end" class="body num">− 48,200원</text><circle cx="34" cy="103" r="8" fill="#3979A7"/><text x="58" y="108" class="body">월급</text><text x="344" y="108" text-anchor="end" class="body blue num">+ 3,200,000원</text></g>
    <circle cx="330" cy="728" r="29" fill="#286859" filter="url(#soft)"/><text x="330" y="737" text-anchor="middle" class="title white">＋</text><use href="#tabbar" x="8" y="774" width="350" height="76"/>
  </g></g>

  <!-- Screen 2 History -->
  <g id="03-history" transform="translate(590 990)"><use href="#phone" width="430" height="932"/><g transform="translate(32 70)"><text class="title">내역</text><circle cx="334" cy="16" r="24" fill="#EEF1EF"/><text x="334" y="22" text-anchor="middle" class="body">⌁</text><rect y="62" width="366" height="48" rx="18" fill="#ECEFEB"/><rect x="124" y="4" width="118" height="40" rx="15" fill="#fff" filter="url(#soft)" transform="translate(0 62)"/><text x="61" y="92" text-anchor="middle" class="small muted">일</text><text x="183" y="92" text-anchor="middle" class="small">주</text><text x="305" y="92" text-anchor="middle" class="small muted">월</text><text y="152" class="small muted">9월 7일 – 13일</text><text y="197" class="title num">− 284,700원</text><text y="228" class="small blue">수입 +3,200,000원</text>
    <g transform="translate(0 264)"><rect width="112" height="38" rx="16" fill="#E5EEE9"/><text x="56" y="25" text-anchor="middle" class="small green">전체 필터 2</text><rect x="124" width="96" height="38" rx="16" fill="#F0F2F0"/><text x="172" y="25" text-anchor="middle" class="small muted">수진</text><rect x="232" width="112" height="38" rx="16" fill="#F0F2F0"/><text x="288" y="25" text-anchor="middle" class="small muted">신한카드</text></g>
    <g transform="translate(0 334)"><text class="h2">오늘</text><text x="366" text-anchor="end" class="small red num">− 86,200원</text><rect y="24" width="366" height="176" rx="26" fill="#fff"/><circle cx="38" cy="62" r="22" fill="#F7E8E3"/><text x="38" y="68" text-anchor="middle" class="body">☕</text><text x="76" y="58" class="body">테라로사</text><text x="344" y="58" text-anchor="end" class="body num">− 8,000</text><text x="76" y="80" class="caption">카페 · 수진</text><line x1="76" y1="98" x2="344" y2="98" class="hair"/><circle cx="38" cy="136" r="22" fill="#E8EEE9"/><text x="38" y="142" text-anchor="middle" class="body">▰</text><text x="76" y="132" class="body">마켓컬리</text><text x="344" y="132" text-anchor="end" class="body num">− 48,200</text><text x="76" y="154" class="caption">식비 · 공동</text></g>
    <g transform="translate(0 570)"><text class="h2">9월 8일</text><text x="366" text-anchor="end" class="small red num">− 198,500원</text><rect y="24" width="366" height="84" rx="26" fill="#fff"/><circle cx="38" cy="66" r="22" fill="#E9E8F4"/><text x="38" y="72" text-anchor="middle" class="body">⌂</text><text x="76" y="62" class="body">관리비</text><text x="344" y="62" text-anchor="end" class="body num">− 198,500</text><text x="76" y="84" class="caption">주거 · 민준</text></g><circle cx="330" cy="728" r="29" fill="#286859" filter="url(#soft)"/><text x="330" y="737" text-anchor="middle" class="title white">＋</text><use href="#tabbar" x="8" y="774" width="350" height="76"/>
  </g></g>

  <!-- Screen 3 Add -->
  <g id="04-add-transaction" transform="translate(1060 990)"><use href="#phone" width="430" height="932"/><g transform="translate(32 70)"><text class="title">새 거래</text><text x="366" text-anchor="end" class="body muted">닫기</text><text y="64" class="body muted">어떻게 기록할까요?</text>
    <rect y="102" width="366" height="154" rx="30" fill="url(#hero)"/><circle cx="54" cy="154" r="28" fill="#fff" opacity=".14"/><text x="54" y="162" text-anchor="middle" class="h2 white">✦</text><text x="98" y="146" class="h2 white">이용내역 캡처</text><text x="98" y="174" class="small white" opacity=".78">한 장에서 여러 거래를 찾아드려요</text><rect x="98" y="196" width="108" height="34" rx="14" fill="#fff" opacity=".16"/><text x="152" y="218" text-anchor="middle" class="small white">AI로 분석</text><text x="332" y="183" text-anchor="middle" class="title white">›</text>
    <rect y="274" width="366" height="104" rx="28" fill="#fff"/><circle cx="54" cy="326" r="27" fill="#E7EFEA"/><text x="54" y="333" text-anchor="middle" class="h2 green">＋</text><text x="98" y="320" class="h2">직접 입력</text><text x="98" y="348" class="small muted">수입 · 지출 · 상품권</text><text x="332" y="334" text-anchor="middle" class="title muted">›</text>
    <text y="430" class="h2">빠른 입력</text><g transform="translate(0 456)"><rect width="174" height="104" rx="26" fill="#F1EADF"/><text x="22" y="36" class="small muted">자주 쓰는 항목</text><text x="22" y="70" class="body">☕ 카페</text><text x="148" y="70" text-anchor="middle" class="body">›</text><rect x="192" width="174" height="104" rx="26" fill="#E6EFEB"/><text x="214" y="36" class="small muted">최근 수단</text><text x="214" y="70" class="body">▰ 신한카드</text></g>
    <rect y="600" width="366" height="102" rx="26" fill="#F5F2EB"/><text x="22" y="635" class="small green">개인정보 안내</text><text x="22" y="665" class="small muted">캡처는 확인 세션에서만 사용하고</text><text x="22" y="688" class="small muted">완료하거나 취소하면 정리해요.</text>
  </g></g>

  <!-- Screen 4 AI Review -->
  <g id="05-ai-review" transform="translate(1530 990)"><use href="#phone" width="430" height="932"/><g transform="translate(24 66)"><text x="8" y="20" class="body">‹</text><text x="191" y="20" text-anchor="middle" class="h2">거래 확인</text><text x="358" y="20" text-anchor="end" class="small muted">3개 찾음</text>
    <rect x="8" y="54" width="366" height="180" rx="28" fill="#232928"/><rect x="28" y="72" width="326" height="144" rx="16" fill="#F7F8F7"/><text x="46" y="98" class="caption">CARD HISTORY</text><line x1="46" y1="112" x2="336" y2="112" class="hair"/><text x="46" y="138" class="small">09.09 마켓컬리</text><text x="336" y="138" text-anchor="end" class="small num">48,200</text><text x="46" y="166" class="small">09.09 테라로사</text><text x="336" y="166" text-anchor="end" class="small num">8,000</text><text x="46" y="194" class="small">09.08 관리비</text><text x="336" y="194" text-anchor="end" class="small num">198,500</text><circle cx="340" cy="70" r="22" fill="#fff" opacity=".16"/><text x="340" y="77" text-anchor="middle" class="body white">⌗</text>
    <g transform="translate(8 258)"><rect width="366" height="112" rx="26" fill="#fff"/><circle cx="28" cy="32" r="12" fill="#286859"/><text x="28" y="38" text-anchor="middle" class="small white">✓</text><text x="56" y="34" class="body">마켓컬리</text><text x="344" y="34" text-anchor="end" class="h2 num">48,200원</text><text x="56" y="62" class="small muted">9월 9일 · 식비 · 신한카드</text><rect x="56" y="76" width="92" height="24" rx="10" fill="#F1F3F1"/><text x="102" y="93" text-anchor="middle" class="caption">중복 없음</text></g>
    <g transform="translate(8 386)"><rect width="366" height="132" rx="26" fill="#FFF6F4" stroke="#E9A39C"/><circle cx="28" cy="32" r="12" fill="#286859"/><text x="28" y="38" text-anchor="middle" class="small white">✓</text><text x="56" y="34" class="body">테라로사</text><text x="344" y="34" text-anchor="end" class="h2 num">8,000원</text><text x="56" y="62" class="small muted">날짜 미확인 · 카페 · 신한카드</text><rect x="56" y="82" width="108" height="28" rx="12" fill="#FCE0DC"/><text x="110" y="101" text-anchor="middle" class="caption red">날짜 확인 필요</text><text x="336" y="100" text-anchor="end" class="body red">수정 ›</text></g>
    <g transform="translate(8 534)"><rect width="366" height="112" rx="26" fill="#fff"/><circle cx="28" cy="32" r="12" fill="#fff" stroke="#AEB7B3"/><text x="56" y="34" class="body">카드대금 납부</text><text x="344" y="34" text-anchor="end" class="h2 num">1,240,000원</text><text x="56" y="62" class="small muted">일반 지출 아님 · 저장 제외</text><rect x="56" y="76" width="102" height="24" rx="10" fill="#F1F3F1"/><text x="107" y="93" text-anchor="middle" class="caption">항목 확인</text></g>
    <rect x="8" y="686" width="366" height="58" rx="22" fill="#286859"/><text x="191" y="723" text-anchor="middle" class="body white">2건 저장 · 56,200원</text><text x="191" y="772" text-anchor="middle" class="caption">선택한 거래는 한 번에 저장돼요</text>
  </g></g>

  <!-- Screen 5 Wallet -->
  <g id="06-wallet" transform="translate(2000 990)"><use href="#phone" width="430" height="932"/><g transform="translate(32 70)"><text class="title">지갑</text><circle cx="334" cy="16" r="24" fill="#286859"/><text x="334" y="24" text-anchor="middle" class="h2 white">＋</text><text y="70" class="small muted">카드 실적</text><rect y="94" width="366" height="174" rx="30" fill="#17201E" filter="url(#soft)"/><text x="22" y="132" class="small white" opacity=".7">신한 Deep Dream · 수진</text><text x="22" y="174" class="title white num">760,000 / 1,000,000</text><text x="22" y="204" class="small white" opacity=".7">목표까지 240,000원</text><rect x="22" y="230" width="322" height="8" rx="4" fill="#fff" opacity=".16"/><rect x="22" y="230" width="245" height="8" rx="4" fill="#D8B477"/><text x="326" y="258" text-anchor="end" class="caption white">예상 실적 76%</text>
    <text y="318" class="h2">상품권</text><text x="366" y="318" text-anchor="end" class="small green">모두 보기</text><rect y="340" width="366" height="212" rx="28" fill="#fff"/><circle cx="48" cy="386" r="26" fill="#E8EEE9"/><text x="48" y="393" text-anchor="middle" class="body green">S</text><text x="90" y="380" class="body">신세계 상품권</text><text x="90" y="412" class="h2 num">80,000원</text><rect x="250" y="372" width="92" height="38" rx="15" fill="#E6EFEA"/><text x="296" y="397" text-anchor="middle" class="small green">사용하기</text><line x1="90" y1="438" x2="342" y2="438" class="hair"/><circle cx="48" cy="484" r="26" fill="#F3EBDD"/><text x="48" y="491" text-anchor="middle" class="body">C</text><text x="90" y="478" class="body">컬쳐랜드</text><text x="90" y="510" class="h2 num">32,500원</text><text x="330" y="493" class="body muted">›</text>
    <rect y="578" width="366" height="94" rx="26" fill="#F1EADF"/><text x="22" y="612" class="small">이번 달 혜택</text><text x="22" y="646" class="body">카드 목표까지 24% 남았어요</text><text x="338" y="632" text-anchor="middle" class="title">↗</text><use href="#tabbar" x="8" y="774" width="350" height="76"/>
  </g></g>

  <!-- Screen 6 Settings Theme -->
  <g id="07-theme-settings" transform="translate(2470 990)"><use href="#phone" width="430" height="932"/><g transform="translate(32 70)"><text x="0" y="20" class="body">‹</text><text x="183" y="20" text-anchor="middle" class="h2">앱 테마</text><text y="76" class="body muted">내 기기에서만 적용돼요</text>
    <g transform="translate(0 112)"><rect width="366" height="150" rx="28" fill="#fff" stroke="#286859" stroke-width="2"/><circle cx="332" cy="30" r="13" fill="#286859"/><text x="332" y="35" text-anchor="middle" class="caption white">✓</text><text x="22" y="36" class="h2">숲과 크림</text><text x="22" y="62" class="caption green">선택됨</text><circle cx="38" cy="108" r="22" fill="#286859"/><circle cx="82" cy="108" r="22" fill="#D8B477"/><circle cx="126" cy="108" r="22" fill="#FAF7F0" stroke="#E6E0D5"/><rect x="180" y="82" width="154" height="52" rx="18" fill="#FAF7F0"/><rect x="194" y="96" width="76" height="8" rx="4" fill="#286859"/><rect x="194" y="112" width="110" height="7" rx="4" fill="#D8B477"/></g>
    <g transform="translate(0 278)"><rect width="366" height="128" rx="28" fill="#fff"/><text x="22" y="36" class="h2">바다와 모래</text><circle cx="38" cy="88" r="22" fill="#285F88"/><circle cx="82" cy="88" r="22" fill="#DCC39C"/><circle cx="126" cy="88" r="22" fill="#F5F8FB" stroke="#E0E5E8"/><rect x="180" y="62" width="154" height="52" rx="18" fill="#F5F8FB"/><rect x="194" y="76" width="76" height="8" rx="4" fill="#285F88"/><rect x="194" y="92" width="110" height="7" rx="4" fill="#DCC39C"/></g>
    <g transform="translate(0 422)"><rect width="366" height="128" rx="28" fill="#fff"/><text x="22" y="36" class="h2">라벤더 밀크</text><circle cx="38" cy="88" r="22" fill="#69518B"/><circle cx="82" cy="88" r="22" fill="#D9BDD1"/><circle cx="126" cy="88" r="22" fill="#FAF7FC" stroke="#E8E0EB"/><rect x="180" y="62" width="154" height="52" rx="18" fill="#FAF7FC"/><rect x="194" y="76" width="76" height="8" rx="4" fill="#69518B"/><rect x="194" y="92" width="110" height="7" rx="4" fill="#D9BDD1"/></g>
    <g transform="translate(0 566)"><rect width="176" height="116" rx="26" fill="#fff"/><text x="18" y="34" class="body">로즈 티</text><circle cx="34" cy="78" r="18" fill="#914F63"/><circle cx="70" cy="78" r="18" fill="#DBC4A0"/><rect x="190" width="176" height="116" rx="26" fill="#fff"/><text x="208" y="34" class="body">모노 올리브</text><circle cx="224" cy="78" r="18" fill="#4F5E42"/><circle cx="260" cy="78" r="18" fill="#C7C0AE"/></g>
    <rect y="716" width="366" height="58" rx="22" fill="#286859"/><text x="183" y="753" text-anchor="middle" class="body white">이 테마 사용하기</text>
  </g></g>

  <!-- Notes -->
  <g id="08-notes" transform="translate(120 2050)"><rect width="2780" height="470" rx="42" fill="#17201E"/><text x="48" y="68" class="title white">Interaction principles</text>
    <g transform="translate(48 116)"><text class="h2 white">01 · Trust before delight</text><text y="34" class="body white" opacity=".68">금액·수입·지출은 색뿐 아니라 +/−와 문구로 구분합니다.</text><text y="92" class="h2 white">02 · Glass has a job</text><text y="126" class="body white" opacity=".68">Liquid Glass는 탭바와 떠 있는 액션에만 사용하고 금융 콘텐츠에는 쓰지 않습니다.</text><text y="184" class="h2 white">03 · Confirm AI, never assume</text><text y="218" class="body white" opacity=".68">누락값·중복 후보·비지원 유형을 사용자가 확인하기 전에는 저장하지 않습니다.</text></g>
    <g transform="translate(1040 116)"><text class="h2 white">04 · Shared, still personal</text><text y="34" class="body white" opacity=".68">작성자와 실제 사용자를 분리하고, 테마는 각 기기에만 저장합니다.</text><text y="92" class="h2 white">05 · Calm density</text><text y="126" class="body white" opacity=".68">큰 금액, 짧은 메타데이터, 묶인 목록으로 빠르게 훑을 수 있게 합니다.</text><text y="184" class="h2 white">06 · Native motion</text><text y="218" class="body white" opacity=".68">시트 전환과 저장 상태는 220–360ms 스프링, Reduce Motion을 존중합니다.</text></g>
    <g transform="translate(2040 112)"><rect width="660" height="250" rx="30" fill="#fff" opacity=".08"/><text x="28" y="48" class="small white">CORE FLOW</text><text x="28" y="92" class="body white">캘린더 / 내역</text><text x="180" y="92" class="body white" opacity=".45">→</text><text x="220" y="92" class="body white">＋ 새 거래</text><text x="28" y="138" class="body white">직접 입력</text><text x="180" y="138" class="body white" opacity=".45">or</text><text x="220" y="138" class="body white">AI 캡처 검토</text><text x="28" y="184" class="body white">원자적 저장</text><text x="180" y="184" class="body white" opacity=".45">→</text><text x="220" y="184" class="body white">집계 · 지갑 갱신</text><text x="28" y="226" class="caption white">No confirmation, no financial impact.</text></g>
  </g>
  <text x="120" y="2600" class="small muted">Smart Budget · Product design board · 2026-09-18 · Source: docs/design.md + implementation-handoff.md</text>
</svg>
